<?xml version="1.0" standalone="no"?>
<!DOCTYPE svg PUBLIC "-//W3C//DTD SVG 20010904//EN"
 "http://www.w3.org/TR/2001/REC-SVG-20010904/DTD/svg10.dtd">
<svg version="1.0" xmlns="http://www.w3.org/2000/svg"
 width="520.000000pt" height="520.000000pt" viewBox="0 0 520.000000 520.000000"
 preserveAspectRatio="xMidYMid meet">
<metadata>
Created by potrace 1.11, written by Peter Selinger 2001-2013
</metadata>
<g transform="translate(0.000000,520.000000) scale(0.100000,-0.100000)"
fill="#000000" stroke="none">
<path d="M0 2600 l0 -2600 2600 0 2600 0 0 2600 0 2600 -2600 0 -2600 0 0
-2600z m1670 2045 l0 -285 183 -2 182 -3 5 -285 5 -285 555 0 555 0 3 288 2
287 179 0 c154 0 180 2 185 16 3 9 6 137 6 285 l0 269 185 0 185 0 -2 -287 -3
-288 -182 -3 -183 -2 0 -285 0 -285 183 -2 182 -3 5 -285 5 -285 182 -3 183
-2 2 -283 3 -282 180 -3 c128 -2 181 -6 187 -15 10 -16 10 -1698 0 -1715 -7
-9 -51 -12 -188 -10 l-179 3 -5 575 -5 575 -180 0 -180 0 -5 -575 -5 -575
-182 -3 -183 -2 -2 -283 -3 -282 -370 0 -370 0 0 285 0 285 370 5 370 5 3 260
c1 143 0 270 -3 283 l-5 22 -925 0 -925 0 0 -285 0 -285 370 0 370 0 0 -290 0
-290 -371 2 -370 3 -2 280 -2 280 -182 3 c-101 1 -184 3 -185 5 -2 1 -5 261
-8 577 l-5 575 -175 0 -175 0 -5 -575 -5 -575 -185 0 -185 0 0 865 0 865 182
3 183 2 2 283 3 282 180 5 180 5 5 285 c3 157 7 286 8 288 1 1 83 2 181 2 138
0 180 3 184 13 7 19 8 523 1 542 -5 13 -33 15 -184 15 -153 0 -179 2 -184 16
-8 21 -8 549 1 557 3 4 89 7 190 7 l183 0 0 -285z"/>
<path d="M1677 3194 c-4 -4 -7 -133 -7 -286 l0 -278 183 2 182 3 0 280 0 280
-176 3 c-96 1 -178 -1 -182 -4z"/>
<path d="M3167 3193 c-4 -3 -7 -132 -7 -285 l0 -278 179 0 c154 0 180 2 185
16 8 21 8 448 0 508 l-7 46 -172 0 c-94 0 -175 -3 -178 -7z"/>
</g>
</svg>
